<svg width="634" height="180" viewBox="0 0 634 180" fill="none" xmlns="http://www.w3.org/2000/svg">
<path d="M1 91.3621L5.38692 87.5764C9.77383 83.7907 18.5477 76.2194 27.3215 84.5111C36.0953 92.8028 44.8692 116.958 53.643 117.127C62.4168 117.296 71.1907 93.4802 79.9645 83.9151C88.7383 74.3499 97.5122 79.0358 106.286 90.6242C115.06 102.213 123.834 120.704 132.607 128.375C141.381 136.046 150.155 132.897 158.929 143.367C167.703 153.838 176.477 177.927 185.25 178.653C194.024 179.379 202.798 156.742 211.572 145.528C220.346 134.313 229.12 134.52 237.893 144.067C246.667 153.614 255.441 172.5 264.215 153.071C272.989 133.643 281.763 75.8987 290.536 65.5303C299.31 55.162 308.084 92.1691 316.858 103.745C325.632 115.32 334.406 101.464 343.179 94.3623C351.953 87.2602 360.727 86.9117 369.501 87.1917C378.275 87.4717 387.049 88.3801 395.822 101.09C404.596 113.799 413.37 138.31 422.144 149.964C430.918 161.617 439.692 160.413 448.465 133.249C457.239 106.084 466.013 52.9592 474.787 25.0288C483.561 -2.90159 492.335 -5.63752 501.108 12.4383C509.882 30.5142 518.656 69.4018 527.43 99.148C536.204 128.894 544.978 149.499 553.751 137.509C562.525 125.519 571.299 80.9335 580.073 56.5382C588.847 32.1428 597.621 27.9373 606.394 35.8104C615.168 43.6836 623.942 63.6354 628.329 73.6114L632.716 83.5873" stroke="#6865E7" stroke-width="2"/>
</svg>
