<svg width="635" height="78" viewBox="0 0 635 78" fill="none" xmlns="http://www.w3.org/2000/svg">
<path d="M633 16.994L625.978 29.2102C618.956 41.4265 604.911 65.859 590.867 67.4476C576.822 69.0361 562.778 47.7806 548.733 42.9195C534.689 38.0585 520.644 49.5919 506.6 56.154C492.556 62.7162 478.511 64.3071 464.467 65.1999C450.422 66.0927 436.378 66.2874 422.333 69.9254C408.289 73.5633 394.244 80.6445 380.2 69.9153C366.156 59.1862 352.111 30.6468 338.067 15.536C324.022 0.425207 309.978 -1.25706 295.933 10.6327C281.889 22.5225 267.844 47.9844 253.8 55.0422C239.756 62.1001 225.711 50.754 211.667 51.9273C197.622 53.1007 183.578 66.7935 169.533 58.3085C155.489 49.8235 141.444 19.1607 127.4 16.4918C113.356 13.823 99.3111 39.1481 85.2667 50.4321C71.2222 61.7162 57.1778 58.9591 43.1333 59.7312C29.0889 60.5033 15.0445 64.8046 8.02223 66.9553L0.999984 69.1059" stroke="#F9BA33" stroke-width="4"/>
</svg>
