<svg width="66" height="48" viewBox="0 0 66 48" fill="none" xmlns="http://www.w3.org/2000/svg">
<rect x="0.5" y="0.5" width="65" height="47" rx="23.5" stroke="#DEDEDE"/>
<path d="M33 18.44V21.77" stroke="#0D163A" stroke-width="1.5" stroke-miterlimit="10" stroke-linecap="round"/>
<path d="M33.0199 14C29.3399 14 26.3599 16.98 26.3599 20.66V22.76C26.3599 23.44 26.0799 24.46 25.7299 25.04L24.4599 27.16C23.6799 28.47 24.2199 29.93 25.6599 30.41C30.4399 32 35.6099 32 40.3899 30.41C41.7399 29.96 42.3199 28.38 41.5899 27.16L40.3199 25.04C39.9699 24.46 39.6899 23.43 39.6899 22.76V20.66C39.6799 17 36.6799 14 33.0199 14Z" stroke="#0D163A" stroke-width="1.5" stroke-miterlimit="10" stroke-linecap="round"/>
<path d="M36.3299 30.82C36.3299 32.65 34.8299 34.15 32.9999 34.15C32.0899 34.15 31.2499 33.77 30.6499 33.17C30.0499 32.57 29.6699 31.73 29.6699 30.82" stroke="#0D163A" stroke-width="1.5" stroke-miterlimit="10"/>
</svg>
